<svg width="26" height="22" viewBox="0 0 26 22" fill="none" xmlns="http://www.w3.org/2000/svg">
<path d="M11.5556 7H1.44444C0.65 7 0 7.64286 0 8.42857V18.4286C0 19.2143 0.65 19.8571 1.44444 19.8571H4.33333L6.5 22L8.66667 19.8571H11.5556C12.35 19.8571 13 19.2143 13 18.4286V8.42857C13 7.64286 12.35 7 11.5556 7ZM11.5556 18.4286H8.06722L6.5 19.9786L4.93278 18.4286H1.44444V8.42857H11.5556V18.4286ZM6.5 17.7143L7.85778 14.7714L10.8333 13.4286L7.85778 12.0857L6.5 9.14286L5.14222 12.0857L2.16667 13.4286L5.14222 14.7714L6.5 17.7143Z" fill="#123D80"/>
<rect x="6" width="20" height="10" rx="5" fill="#EF1313"/>
<path d="M13.2754 7H12.4111L10.3135 3.58105H10.2871C10.2949 3.69629 10.3018 3.81836 10.3076 3.94727C10.3154 4.07617 10.3213 4.20898 10.3252 4.3457C10.3311 4.48242 10.3359 4.62109 10.3398 4.76172V7H9.70117V2.7168H10.5596L12.6543 6.1123H12.6748C12.6709 6.0127 12.666 5.89844 12.6602 5.76953C12.6543 5.64062 12.6484 5.50781 12.6426 5.37109C12.6387 5.23242 12.6357 5.09863 12.6338 4.96973V2.7168H13.2754V7ZM16.8262 7H14.4004V2.7168H16.8262V3.30859H15.1035V4.47168H16.7178V5.06055H15.1035V6.40527H16.8262V7ZM22.8174 2.7168L21.6982 7H20.9307L20.2158 4.43359C20.1982 4.37109 20.1787 4.29688 20.1572 4.21094C20.1357 4.125 20.1143 4.03711 20.0928 3.94727C20.0732 3.85742 20.0557 3.77539 20.04 3.70117C20.0264 3.625 20.0166 3.56641 20.0107 3.52539C20.0068 3.56641 19.998 3.62402 19.9844 3.69824C19.9707 3.77246 19.9541 3.85449 19.9346 3.94434C19.917 4.03223 19.8975 4.12012 19.876 4.20801C19.8545 4.29395 19.835 4.37012 19.8174 4.43652L19.1143 7H18.3496L17.2334 2.7168H17.9395L18.5576 5.22754C18.5771 5.30762 18.5967 5.39453 18.6162 5.48828C18.6377 5.58008 18.6572 5.67285 18.6748 5.7666C18.6943 5.86035 18.7119 5.95215 18.7275 6.04199C18.7432 6.12988 18.7559 6.20996 18.7656 6.28223C18.7754 6.20801 18.7881 6.12598 18.8037 6.03613C18.8193 5.94434 18.8359 5.85156 18.8535 5.75781C18.873 5.66211 18.8926 5.57031 18.9121 5.48242C18.9336 5.39453 18.9551 5.31543 18.9766 5.24512L19.6738 2.7168H20.3594L21.0713 5.25391C21.0928 5.32617 21.1133 5.40723 21.1328 5.49707C21.1543 5.58691 21.1748 5.67871 21.1943 5.77246C21.2139 5.86621 21.2314 5.95703 21.2471 6.04492C21.2627 6.13281 21.2754 6.21191 21.2852 6.28223C21.2988 6.18652 21.3164 6.07715 21.3379 5.9541C21.3594 5.83105 21.3838 5.70605 21.4111 5.5791C21.4385 5.45215 21.4658 5.33496 21.4932 5.22754L22.1084 2.7168H22.8174Z" fill="white"/>
</svg>
