<svg width="16" height="16" viewBox="0 0 16 16" fill="none" xmlns="http://www.w3.org/2000/svg">
<path d="M4.00004 12.6667C4.00004 13.4 4.60004 14 5.33337 14H10.6667C11.4 14 12 13.4 12 12.6667V6C12 5.26667 11.4 4.66667 10.6667 4.66667H5.33337C4.60004 4.66667 4.00004 5.26667 4.00004 6V12.6667ZM12 2.66667H10.3334L9.86004 2.19333C9.74004 2.07333 9.56671 2 9.39337 2H6.60671C6.43337 2 6.26004 2.07333 6.14004 2.19333L5.66671 2.66667H4.00004C3.63337 2.66667 3.33337 2.96667 3.33337 3.33333C3.33337 3.7 3.63337 4 4.00004 4H12C12.3667 4 12.6667 3.7 12.6667 3.33333C12.6667 2.96667 12.3667 2.66667 12 2.66667Z" fill="#123D80"/>
</svg>
