<svg width="20" height="10" viewBox="0 0 20 10" fill="none" xmlns="http://www.w3.org/2000/svg">
<rect width="20" height="10" rx="5" fill="#EF1313"/>
<path d="M7.27539 7H6.41113L4.31348 3.58105H4.28711C4.29492 3.69629 4.30176 3.81836 4.30762 3.94727C4.31543 4.07617 4.32129 4.20898 4.3252 4.3457C4.33105 4.48242 4.33594 4.62109 4.33984 4.76172V7H3.70117V2.7168H4.55957L6.6543 6.1123H6.6748C6.6709 6.0127 6.66602 5.89844 6.66016 5.76953C6.6543 5.64062 6.64844 5.50781 6.64258 5.37109C6.63867 5.23242 6.63574 5.09863 6.63379 4.96973V2.7168H7.27539V7ZM10.8262 7H8.40039V2.7168H10.8262V3.30859H9.10352V4.47168H10.7178V5.06055H9.10352V6.40527H10.8262V7ZM16.8174 2.7168L15.6982 7H14.9307L14.2158 4.43359C14.1982 4.37109 14.1787 4.29688 14.1572 4.21094C14.1357 4.125 14.1143 4.03711 14.0928 3.94727C14.0732 3.85742 14.0557 3.77539 14.04 3.70117C14.0264 3.625 14.0166 3.56641 14.0107 3.52539C14.0068 3.56641 13.998 3.62402 13.9844 3.69824C13.9707 3.77246 13.9541 3.85449 13.9346 3.94434C13.917 4.03223 13.8975 4.12012 13.876 4.20801C13.8545 4.29395 13.835 4.37012 13.8174 4.43652L13.1143 7H12.3496L11.2334 2.7168H11.9395L12.5576 5.22754C12.5771 5.30762 12.5967 5.39453 12.6162 5.48828C12.6377 5.58008 12.6572 5.67285 12.6748 5.7666C12.6943 5.86035 12.7119 5.95215 12.7275 6.04199C12.7432 6.12988 12.7559 6.20996 12.7656 6.28223C12.7754 6.20801 12.7881 6.12598 12.8037 6.03613C12.8193 5.94434 12.8359 5.85156 12.8535 5.75781C12.873 5.66211 12.8926 5.57031 12.9121 5.48242C12.9336 5.39453 12.9551 5.31543 12.9766 5.24512L13.6738 2.7168H14.3594L15.0713 5.25391C15.0928 5.32617 15.1133 5.40723 15.1328 5.49707C15.1543 5.58691 15.1748 5.67871 15.1943 5.77246C15.2139 5.86621 15.2314 5.95703 15.2471 6.04492C15.2627 6.13281 15.2754 6.21191 15.2852 6.28223C15.2988 6.18652 15.3164 6.07715 15.3379 5.9541C15.3594 5.83105 15.3838 5.70605 15.4111 5.5791C15.4385 5.45215 15.4658 5.33496 15.4932 5.22754L16.1084 2.7168H16.8174Z" fill="white"/>
</svg>
