<svg width="23" height="24" viewBox="0 0 23 24" fill="none" xmlns="http://www.w3.org/2000/svg">
<path d="M19 0H4V24H19V0Z" fill="#B7132A"/>
<path d="M12.0478 17.4087C10.4114 17.4087 9.13867 17.7723 9.13867 18.2723C9.13867 18.7723 10.4569 19.0905 12.0478 19.0905C13.6841 19.0905 15.0023 18.7269 15.0023 18.2723C15.0023 17.7723 13.6387 17.4087 12.0478 17.4087Z" fill="white"/>
<path d="M6.50266 19.9995H16.0481C16.0481 19.9995 16.7754 20.045 16.7754 20.7268C16.7754 21.4541 16.139 21.4995 16.139 21.4995H6.45721C6.45721 21.4995 5.77539 21.4086 5.77539 20.7722C5.82085 20.0904 6.50266 19.9995 6.50266 19.9995Z" fill="white"/>
<path d="M11.0023 13.9539C11.0023 13.9539 11.7295 13.5448 13.1841 13.7267H13.2295V5.13574H11.775C11.775 5.13574 11.3204 5.09029 11.3204 4.63574C11.3204 4.1812 11.7295 4.09029 11.7295 4.09029H12.3204V2.49938C12.3204 2.49938 12.3204 2.13574 12.6841 2.13574C13.0477 2.13574 13.0477 2.40847 13.0477 2.40847V4.13574H14.1386V14.0448C14.1386 14.0448 14.6841 14.3176 14.6386 15.0448C14.5932 15.7721 14.0023 15.863 14.0023 15.863C14.0023 15.863 13.6386 16.1357 12.275 16.1357C12.1386 16.1357 12.0023 15.9994 12.0023 15.863C12.0023 15.7267 12.1386 15.5448 12.275 15.5448C12.5023 15.5903 13.5477 15.4994 13.6841 15.363C13.6841 15.363 13.9114 15.3176 14.0023 15.0903C14.0932 14.8176 14.0023 14.7721 13.9114 14.6357C13.8204 14.4994 13.1841 14.3176 12.8659 14.3176C12.5477 14.3176 12.0932 14.2267 11.4568 14.4994C11.1841 14.5903 11.0932 14.6812 10.9568 14.4085C10.775 14.1812 10.9114 14.0448 11.0023 13.9539Z" fill="white"/>
<path d="M9.23066 12.7729C9.77612 11.2729 10.8216 9.36377 10.8216 9.36377V7.36377C10.6852 7.54559 9.50339 9.68195 8.54884 11.7729C7.54884 13.9547 7.13975 16.3638 7.13975 16.3638C7.13975 16.3638 6.95793 17.7274 7.00339 18.091C7.04884 18.4547 7.0943 19.091 7.18521 19.5001C7.32157 19.8638 7.45793 20.1365 7.45793 20.1365L8.68521 20.182C8.68521 20.182 8.18521 19.7274 8.04884 18.682C7.95793 17.682 8.04884 16.9092 8.27612 15.9092C8.45793 15.091 8.73066 14.2729 8.82157 13.9547C8.91248 13.591 9.23066 12.7729 9.23066 12.7729Z" fill="white"/>
</svg>
