<svg width="89" height="36" viewBox="0 0 89 36" fill="none" xmlns="http://www.w3.org/2000/svg">
<path d="M10.226 22.7259C11.3805 22.3185 12.2877 22.4 12.865 22.4C13.4422 22.4 14.5968 22.7259 14.7617 22.9704C14.9267 23.2148 15.0916 23.2963 14.9267 23.7852C14.7617 24.2741 14.3494 24.2741 14.3494 24.2741C14.102 24.5185 12.2052 24.6815 11.7929 24.6C11.5455 24.6 11.2156 24.9259 11.2156 25.1704C11.2156 25.4148 11.463 25.6593 11.7104 25.6593C14.1845 25.7407 14.8442 25.1704 14.8442 25.1704C14.8442 25.1704 15.9163 25.0074 15.9987 23.7037C16.0812 22.4 15.0916 21.9111 15.0916 21.9111V4.14815H13.1948V1.05185C13.1948 1.05185 13.1948 0.562962 12.5351 0.562962C11.8754 0.562962 11.8754 1.21481 11.8754 1.21481V4.14815H10.7208C10.7208 4.14815 9.9786 4.31111 9.9786 5.12592C9.9786 5.94074 10.8857 6.02222 10.8857 6.02222H13.5247V21.5037H13.4422C10.8033 21.1778 9.48379 21.9111 9.48379 21.9111C9.31885 22.0741 9.07145 22.237 9.23639 22.6444C9.48379 22.9704 9.64872 22.8889 10.226 22.7259ZM18.7202 32.7481H4.8656C4.53573 32.3407 4.12339 31.6074 3.95845 30.3852C3.79352 28.5926 3.95845 27.1259 4.37079 25.3333C4.70066 23.8667 5.19547 22.4 5.3604 21.8296C5.52534 21.2593 6.10261 19.7111 6.10261 19.7111C7.09223 16.9407 8.98898 13.6 8.98898 13.6V10.0148C8.74158 10.3407 6.59742 14.2519 4.8656 17.9185C3.13377 21.8296 2.39156 26.1481 2.39156 26.1481C2.39156 26.1481 2.06169 28.5926 2.14416 29.2444C2.14416 29.8963 2.22663 31.037 2.47403 31.7704C2.63897 32.1778 2.72144 32.5852 2.88637 32.7481H1.31948C1.31948 32.7481 0 32.8296 0 34.1333C0 35.2741 1.23702 35.437 1.23702 35.437H18.8851C18.8851 35.437 20.0397 35.3556 20.0397 34.0519C20.0397 32.8296 18.7202 32.7481 18.7202 32.7481ZM6.02014 29.5704C6.02014 30.4667 8.41171 31.1185 11.3805 31.1185C14.3494 31.1185 16.7409 30.4667 16.7409 29.5704C16.7409 28.6741 14.3494 28.0222 11.3805 28.0222C8.41171 28.1037 6.02014 28.6741 6.02014 29.5704Z" fill="white"/>
<path d="M32.1624 12.7852C31.7501 11.6444 31.5851 11.3185 31.5851 11.1556C31.5027 11.4 31.4202 11.7259 30.9254 12.7852H32.1624ZM30.5131 13.6815C30.1832 14.4148 30.1007 14.7407 30.0183 14.8222H29.441H28.8637C28.8637 14.7407 29.0286 14.4148 30.0183 12.2148L31.5027 8.87407H31.6676L33.0696 12.2148C34.0592 14.4148 34.1416 14.7407 34.2241 14.8222H33.6468H32.9871C32.9871 14.7407 32.8222 14.4148 32.5748 13.6815H30.5131Z" fill="white"/>
<path d="M35.3787 8.95555H35.5436C37.4404 12.1333 37.6053 12.4593 37.8527 12.9481C38.1001 12.5407 38.265 12.1333 40.1618 8.95555H40.3267L40.7391 12.2148C41.0689 14.4148 41.0689 14.7407 41.0689 14.8222H40.4917H39.9144C39.9144 14.7407 39.8319 14.4148 39.667 13.0296C39.5845 12.5407 39.5845 12.0518 39.502 11.6444C39.2546 12.1333 39.0897 12.4593 38.8423 12.9481C38.7598 13.2741 38.3475 13.9259 37.8527 14.7407H37.6878C37.1929 13.9259 36.7806 13.2741 36.6157 12.8667C36.3683 12.4593 36.2033 12.0518 36.0384 11.6444C36.0384 12.1333 35.9559 12.5407 35.8735 13.0296C35.7085 14.3333 35.7085 14.7407 35.6261 14.8222H35.0488H34.554C34.554 14.7407 34.6364 14.4148 34.9663 12.2148L35.3787 8.95555Z" fill="white"/>
<path d="M41.8936 11.4815V9.03703H43.4605H44.8624V10.0148H44.0378H43.0482V11.4815H44.0378H44.6975V11.9704V12.2963H44.1202H43.1306V13.763V13.8444H44.4501H45.0274V14.8222H43.6254H41.9761V12.2148V11.4815H41.8936Z" fill="white"/>
<path d="M48.1612 10.7481C48.1612 10.1778 47.8313 9.93333 47.254 9.93333C47.1715 9.93333 47.0066 9.93333 47.0066 9.93333V11.7259C47.0891 11.7259 47.1715 11.7259 47.254 11.7259C47.4189 11.7259 47.6664 11.6444 47.8313 11.563C47.9138 11.4 48.1612 11.1556 48.1612 10.7481ZM45.8521 11.4815V9.03703C45.9345 9.03703 46.0995 9.03703 46.3469 9.03703C46.5118 9.03703 46.8417 9.03703 47.0066 9.03703C47.4189 9.03703 47.8313 9.03703 48.1612 9.2C48.5735 9.36296 49.3157 9.77037 49.3157 10.7481C49.3157 11.4815 48.9034 11.8889 48.656 12.1333C48.491 12.2148 48.3261 12.3778 48.2436 12.3778C48.3261 12.4593 48.4086 12.6222 49.6456 14.2518C49.8105 14.4963 50.0579 14.8222 50.0579 14.9037H49.3982H48.9034H48.656C48.2436 14.2518 47.7488 13.5185 47.0891 12.5407H46.9241V12.8667V14.9037H46.4293H45.8521V12.2963V11.4815Z" fill="white"/>
<path d="M51.5423 12.2148V14.8222H51.0475H50.4703V12.2148V11.4815V9.03703V8.95555H51.0475H51.5423V9.03703V11.4815V12.2148Z" fill="white"/>
<path d="M56.7378 10.0148C56.6553 10.0148 56.5729 9.93333 56.4079 9.93333C56.243 9.93333 55.9956 9.85185 55.8307 9.85185C54.4287 9.93333 53.604 10.6667 53.604 11.8889C53.604 13.1111 54.4287 13.9259 55.6657 13.9259C55.9131 13.9259 56.1605 13.9259 56.3255 13.8444C56.4079 13.8444 56.5729 13.763 56.6553 13.763C56.6553 14.0074 56.6553 14.4963 56.6553 14.7407C56.5729 14.7407 56.3255 14.8222 56.1605 14.8222C55.9131 14.8222 55.6657 14.9037 55.4183 14.9037C53.604 14.9037 52.2021 13.763 52.2021 11.8889C52.2021 10.1778 53.5216 8.87407 55.5833 8.87407C55.8307 8.87407 55.9956 8.87407 56.0781 8.87407C56.243 8.87407 56.4079 8.95555 56.5729 8.95555C56.7378 9.28148 56.7378 9.6074 56.7378 10.0148Z" fill="white"/>
<path d="M60.3664 12.7852C59.954 11.6444 59.7891 11.3185 59.7891 11.1556C59.7066 11.4 59.6242 11.7259 59.1294 12.7852H60.3664ZM58.717 13.6815C58.3872 14.4148 58.3047 14.7407 58.2222 14.8222H57.7274H57.1501C57.1501 14.7407 57.3151 14.4148 58.3047 12.2148L59.7891 8.87407H59.954L61.356 12.2148C62.3456 14.4148 62.4281 14.7407 62.5105 14.8222H61.9333H61.2735C61.2735 14.7407 61.1086 14.4148 60.8612 13.6815H58.717Z" fill="white"/>
<path d="M67.8709 14.9037H67.706C66.3865 13.6 65.5618 12.8667 65.067 12.2963C64.6547 11.9704 64.4073 11.7259 63.995 11.237C63.995 11.563 63.995 11.8074 63.995 12.3778V14.8222H63.4177H62.9229V12.2148V8.95555H63.0878C64.4898 10.3407 65.3144 11.0741 65.8093 11.6444C66.1391 11.9704 66.469 12.2963 66.7989 12.6222C66.7989 12.2963 66.7989 12.0518 66.7989 11.4V9.03703H67.3761H67.8709V11.4815V14.9037Z" fill="white"/>
<path d="M32.2449 23.4593C32.2449 24.3556 31.5027 25.0889 30.3481 25.0889C30.0183 25.0889 29.5235 25.0074 29.276 24.9259C29.276 24.5185 29.276 24.437 29.276 23.9481C29.3585 24.0296 29.441 24.0296 29.5234 24.0296C29.6884 24.1111 29.9358 24.1111 30.1832 24.1111C30.5955 24.1111 31.0079 23.8667 31.0079 23.4593C31.0079 23.2148 30.8429 22.9704 30.5955 22.7259C30.3481 22.563 30.1832 22.3185 29.9358 22.1556C29.6059 21.8296 29.276 21.3407 29.276 20.7704C29.276 19.9556 29.8533 19.1407 31.1728 19.1407C31.4202 19.1407 31.7501 19.1407 31.915 19.2222C31.915 19.5481 31.915 19.7111 31.915 20.2C31.8325 20.2 31.7501 20.1185 31.6676 20.1185C31.5851 20.1185 31.4202 20.1185 31.3377 20.1185C30.8429 20.1185 30.5131 20.363 30.5131 20.7704C30.5131 21.0148 30.5955 21.1778 30.7605 21.3407C30.9254 21.5037 31.1728 21.7481 31.5027 21.9926C31.9975 22.4 32.2449 22.8074 32.2449 23.4593Z" fill="white"/>
<path d="M37.8527 22.0741C37.8527 21.0148 37.028 20.1185 35.9559 20.1185C34.8838 20.1185 34.0592 20.9333 34.0592 22.0741C34.0592 23.1333 34.8838 24.0296 35.9559 24.0296C37.028 24.1111 37.8527 23.2148 37.8527 22.0741ZM39.0072 22.0741C39.0072 23.7852 37.6878 25.0889 35.9559 25.0889C34.2241 25.0889 32.9046 23.7852 32.9046 22.0741C32.9046 20.363 34.2241 19.0593 36.0384 19.0593C37.6878 19.0593 39.0072 20.363 39.0072 22.0741Z" fill="white"/>
<path d="M43.9553 20.2C43.8728 20.2 43.7904 20.1185 43.6254 20.1185C43.4605 20.1185 43.2131 20.037 43.0482 20.037C41.7287 20.037 40.8215 20.7704 40.8215 21.9926C40.8215 23.2148 41.6462 24.0296 42.8832 24.0296C43.1306 24.0296 43.378 24.0296 43.543 23.9481C43.6254 23.9481 43.7904 23.8667 43.8728 23.8667C43.8728 24.1111 43.8728 24.6 43.8728 24.8444C43.7904 24.8444 43.543 24.9259 43.378 24.9259C43.1306 24.9259 42.8832 25.0074 42.6358 25.0074C40.8215 25.0074 39.4196 23.8667 39.4196 21.9926C39.4196 20.2815 40.7391 18.9778 42.8008 18.9778C43.0482 18.9778 43.2131 18.9778 43.2956 18.9778C43.4605 18.9778 43.6254 19.0593 43.7904 19.0593C43.9553 19.4667 43.9553 19.7926 43.9553 20.2Z" fill="white"/>
<path d="M46.0995 22.4V25.0074H45.5222H44.9449V22.4V21.6667V19.2222V19.1407H45.5222H46.0995V19.2222V21.6667V22.4Z" fill="white"/>
<path d="M47.254 21.6667V19.2222H48.8209H50.2229V20.2H49.3157H48.3261V21.6667H49.3157H49.9754V22.1556V22.6444H49.3982H48.4086V24.0296V24.1111H49.728H50.3053V25.0889H48.9034H47.254V22.4815V21.6667Z" fill="white"/>
<path d="M52.2845 20.1185H51.2125H50.7177V19.1407H52.5319H53.1917H55.0884V20.1185H55.006H54.5936H53.4391V22.4V25.0074H52.8618H52.2845V22.4V20.1185Z" fill="white"/>
<path d="M58.3872 22.563V22.7259V25.0074H57.8099H57.2326V22.8074V22.7259L56.7378 21.8296C55.5008 19.7111 55.3358 19.3852 55.3358 19.3037H55.9956H56.5729C56.5729 19.3852 56.8203 19.7111 57.1501 20.4444C57.3975 20.8519 57.6449 21.3407 57.8099 21.6667C57.9748 21.3407 58.2222 20.9333 58.4696 20.5259C58.882 19.7926 59.0469 19.3852 59.1294 19.3852H59.7891H60.3664C60.3664 19.4667 60.2014 19.7111 58.9644 21.9111L58.3872 22.563Z" fill="white"/>
<path d="M65.8092 20.1185H64.9021H63.995V21.7481H64.9846H65.6443V22.1556V22.6444H64.9846H63.995V22.8889V25.0074H63.4177H62.8404V22.4V21.6667V19.2222V19.1407H64.4073H65.8092V20.1185Z" fill="white"/>
<path d="M71.4171 22.0741C71.4171 21.0148 70.5924 20.1185 69.5203 20.1185C68.4482 20.1185 67.6235 20.9333 67.6235 22.0741C67.6235 23.1333 68.4482 24.0296 69.5203 24.0296C70.5924 24.0296 71.4171 23.2148 71.4171 22.0741ZM72.5716 22.0741C72.5716 23.7852 71.2521 25.0889 69.5203 25.0889C67.7885 25.0889 66.469 23.7852 66.469 22.0741C66.469 20.363 67.7885 19.0593 69.6028 19.0593C71.2521 19.0593 72.5716 20.363 72.5716 22.0741Z" fill="white"/>
<path d="M75.6229 20.9333C75.6229 20.363 75.293 20.1185 74.7158 20.1185C74.6333 20.1185 74.4684 20.1185 74.4684 20.1185V21.9111C74.5508 21.9111 74.6333 21.9111 74.6333 21.9111C74.8807 21.9111 75.0456 21.8296 75.2106 21.7481C75.3755 21.5852 75.6229 21.3407 75.6229 20.9333ZM73.3138 21.6667V19.2222C73.3963 19.2222 73.6437 19.2222 73.8086 19.2222C73.9736 19.2222 74.3034 19.2222 74.4684 19.2222C74.8807 19.2222 75.293 19.2222 75.6229 19.3852C76.0352 19.5481 76.7775 19.9556 76.7775 20.9333C76.7775 21.6667 76.3651 22.0741 76.1177 22.237C75.9528 22.3185 75.7878 22.4815 75.7054 22.4815C75.7878 22.563 75.8703 22.7259 77.1073 24.3556C77.2723 24.6 77.5197 24.9259 77.5197 25.0074H76.8599H76.3651H76.2002C75.7878 24.3556 75.293 23.6222 74.6333 22.6444H74.4684V22.9704V25.0074H73.9736H73.3963V22.4V21.6667H73.3138Z" fill="white"/>
<path d="M30.0183 29.3259H30.1832C32.0799 32.5037 32.2449 32.8296 32.4923 33.3185C32.7397 32.9111 32.9046 32.5037 34.8014 29.3259H34.9663L35.3787 32.5852C35.7085 34.7852 35.7085 35.1111 35.7085 35.1926H35.1313H34.554C34.554 35.1111 34.4715 34.7852 34.3066 33.4C34.2241 32.9111 34.2241 32.4222 34.2241 32.0148C33.9767 32.5037 33.8118 32.8296 33.5644 33.237C33.3994 33.6444 32.9871 34.2963 32.4923 35.1111H32.3274C31.8325 34.2963 31.4202 33.6444 31.2553 33.237C31.0079 32.8296 30.8429 32.4222 30.678 32.0148C30.678 32.5037 30.5955 32.9111 30.5131 33.4C30.3481 34.7037 30.3481 35.1111 30.2657 35.1926H29.6884H29.1936C29.1936 35.1111 29.276 34.7852 29.6059 32.5852L30.0183 29.3259Z" fill="white"/>
<path d="M37.1105 29.4074H36.5332V31.8519V32.5852V35.1926H37.1105H37.6878V32.5852V31.8519V29.4074H37.1105Z" fill="white"/>
<path d="M42.8008 30.3852C42.7183 30.3852 42.6358 30.3037 42.4709 30.3037C42.3059 30.3037 42.141 30.2222 41.8936 30.2222C40.5741 30.2222 39.667 31.037 39.667 32.1778C39.667 33.4 40.4917 34.2148 41.7287 34.2148C41.9761 34.2148 42.2235 34.2148 42.3884 34.1333C42.4709 34.1333 42.6358 34.0519 42.7183 34.0519C42.7183 34.2963 42.7183 34.7852 42.7183 35.0296C42.6358 35.0296 42.3884 35.1111 42.2235 35.1111C41.9761 35.1111 41.7287 35.1926 41.4813 35.1926C39.667 35.1926 38.265 34.0519 38.265 32.1778C38.265 30.4667 39.5845 29.163 41.6462 29.163C41.8936 29.163 42.0585 29.163 42.141 29.163C42.3059 29.163 42.4709 29.2444 42.6358 29.2444C42.8832 29.7333 42.8832 29.9778 42.8008 30.3852Z" fill="white"/>
<path d="M46.0995 31.1185C46.0995 30.5481 45.7696 30.3037 45.1923 30.3037C45.0274 30.3037 44.9449 30.3037 44.9449 30.3037V32.0963C45.0274 32.0963 45.1099 32.0963 45.1099 32.0963C45.3573 32.0963 45.5222 32.0148 45.6871 31.9333C45.8521 31.8519 46.0995 31.5259 46.0995 31.1185ZM43.7904 31.8519V29.4074C43.8728 29.4074 44.1202 29.4074 44.2852 29.4074C44.4501 29.4074 44.78 29.4074 44.9449 29.4074C45.3573 29.4074 45.7696 29.4889 46.0995 29.5704C46.5118 29.7333 47.254 30.1407 47.254 31.1185C47.254 31.8519 46.8417 32.2593 46.5943 32.4222C46.4293 32.5037 46.2644 32.6667 46.1819 32.6667C46.2644 32.7481 46.3469 32.9111 47.5839 34.5407C47.7488 34.7852 47.9962 35.1111 47.9962 35.1926H47.3365H46.8417H46.6767C46.2644 34.5407 45.6871 33.8074 45.1099 32.8296H44.9449V33.1556V35.1926H44.4501H43.8728V32.5852V31.8519H43.7904Z" fill="white"/>
<path d="M52.9443 32.2593C52.9443 31.1185 52.1196 30.3037 51.0475 30.3037C49.9754 30.3037 49.1508 31.1185 49.1508 32.2593C49.1508 33.3185 49.9754 34.2148 51.0475 34.2148C52.2021 34.2963 52.9443 33.4 52.9443 32.2593ZM54.0988 32.2593C54.0988 33.9704 52.7794 35.2741 51.0475 35.2741C49.3157 35.2741 47.9962 33.9704 47.9962 32.2593C47.9962 30.5481 49.3157 29.2444 51.13 29.2444C52.8618 29.3259 54.0988 30.5481 54.0988 32.2593Z" fill="white"/>
<path d="M57.2326 33.4C57.2326 32.9926 56.9852 32.7481 56.6553 32.6667C56.5729 32.6667 56.4079 32.6667 56.243 32.6667C56.1605 32.6667 56.0781 32.6667 55.9956 32.6667V34.2963C56.0781 34.2963 56.1605 34.2963 56.243 34.2963C56.4079 34.2963 56.5729 34.2963 56.7378 34.2148C56.9852 34.0519 57.2326 33.8074 57.2326 33.4ZM57.0677 31.037C57.0677 30.5481 56.7378 30.3037 56.243 30.3037C56.1605 30.3037 55.9956 30.3037 55.9131 30.3037V31.7704C55.9956 31.7704 56.0781 31.7704 56.0781 31.7704C56.243 31.7704 56.3255 31.7704 56.4904 31.6889C56.8203 31.6074 57.0677 31.363 57.0677 31.037ZM58.3872 33.563C58.3872 34.1333 58.0573 34.6222 57.5625 34.8667C57.1501 35.1111 56.7378 35.1926 55.8307 35.1926C55.6657 35.1926 55.5008 35.1926 55.2534 35.1926C55.1709 35.1926 55.006 35.1926 54.841 35.1926V32.5852V31.8519V29.4074C54.9235 29.4074 55.0884 29.4074 55.2534 29.4074C55.4183 29.4074 55.7482 29.4074 55.9956 29.4074C56.3255 29.4074 56.7378 29.4889 56.9852 29.5704C57.3151 29.6519 58.0573 29.9778 58.0573 30.9556C58.0573 31.5259 57.7274 32.0148 57.1501 32.1778C57.8924 32.2593 58.3872 32.7481 58.3872 33.563Z" fill="white"/>
<path d="M59.8716 29.4074H59.2943V31.8519V32.5852V35.1926H59.8716H60.4488V32.5852V31.8519V29.4074H59.8716Z" fill="white"/>
<path d="M66.2216 32.2593C66.2216 31.1185 65.3969 30.3037 64.3248 30.3037C63.2527 30.3037 62.4281 31.1185 62.4281 32.2593C62.4281 33.3185 63.2527 34.2148 64.3248 34.2148C65.4794 34.2963 66.2216 33.4 66.2216 32.2593ZM67.3761 32.2593C67.3761 33.9704 66.0566 35.2741 64.3248 35.2741C62.593 35.2741 61.2735 33.9704 61.2735 32.2593C61.2735 30.5481 62.593 29.2444 64.4073 29.2444C66.1391 29.3259 67.3761 30.5481 67.3761 32.2593Z" fill="white"/>
<path d="M68.2008 31.8519V29.4074H68.7781H69.3554V31.8519V32.5852V34.2148H70.5924H70.9222H71.1697V35.1926H69.7677H68.1183V32.5852V31.8519H68.2008Z" fill="white"/>
<path d="M76.3651 32.2593C76.3651 31.1185 75.5404 30.3037 74.4684 30.3037C73.3963 30.3037 72.5716 31.1185 72.5716 32.2593C72.5716 33.3185 73.3963 34.2148 74.4684 34.2148C75.5404 34.2963 76.3651 33.4 76.3651 32.2593ZM77.5197 32.2593C77.5197 33.9704 76.2002 35.2741 74.4684 35.2741C72.7365 35.2741 71.4171 33.9704 71.4171 32.2593C71.4171 30.5481 72.7365 29.2444 74.5508 29.2444C76.2002 29.3259 77.5197 30.5481 77.5197 32.2593Z" fill="white"/>
<path d="M81.3132 35.2741C79.4989 35.2741 78.0969 34.1333 78.0969 32.2593C78.0969 30.4667 79.4989 29.2444 81.4781 29.2444C81.808 29.2444 82.0554 29.2444 82.2203 29.3259C82.4677 29.3259 82.6327 29.4074 82.7976 29.4074C82.7976 29.7333 82.7976 29.9778 82.7976 30.3852C82.7151 30.3852 82.5502 30.3037 82.4677 30.3037C82.2203 30.2222 81.9729 30.2222 81.6431 30.2222C80.3236 30.2222 79.334 30.9556 79.334 32.2593C79.334 33.4815 80.1586 34.2963 81.3132 34.2963C81.4781 34.2963 81.6431 34.2963 81.808 34.2148V33.8889V32.5037H82.3853H82.9625V33.8074V34.3778V35.1111C82.5502 35.1926 81.9729 35.2741 81.3132 35.2741Z" fill="white"/>
<path d="M86.4262 32.7481V32.9111V35.1926H85.8489H85.2716V32.9926V32.9111L84.7768 32.0148C83.5398 29.8963 83.3749 29.5704 83.3749 29.4889H84.0346H84.6119C84.6119 29.5704 84.8593 29.8963 85.1892 30.6296C85.4366 31.037 85.684 31.5259 85.8489 31.8518C86.0138 31.5259 86.2613 31.1185 86.5087 30.7111C86.921 29.9778 87.0859 29.5704 87.1684 29.5704H87.8281H88.4054C88.4054 29.6518 88.2405 29.8963 87.0035 32.0963L86.4262 32.7481Z" fill="white"/>
</svg>
