<svg width="152" height="20" viewBox="0 0 152 20" fill="none" xmlns="http://www.w3.org/2000/svg">
<path d="M9.33081 1.03704L16.423 18.963H14.6088L12.3821 13.4222H4.13534L1.99118 18.963H0.176895L7.43405 1.03704H9.33081ZM11.8048 11.9556L8.3412 2.74815L4.63015 11.9556H11.8048Z" fill="white"/>
<path d="M19.3094 15.3778C19.6393 16.0296 20.0516 16.5185 20.5464 16.8444C21.0412 17.2519 21.701 17.4963 22.4432 17.6593C23.1854 17.8222 23.9276 17.9037 24.7523 17.9037C25.2471 17.9037 25.7419 17.8222 26.3192 17.7407C26.8964 17.6593 27.3912 17.4148 27.886 17.0889C28.3809 16.763 28.7932 16.437 29.1231 15.9481C29.4529 15.4593 29.6179 14.9704 29.6179 14.3185C29.6179 13.8296 29.5354 13.4222 29.288 13.0148C29.0406 12.6074 28.7932 12.363 28.3809 12.1185C27.9685 11.8741 27.6386 11.6296 27.1438 11.4667C26.7315 11.3037 26.2367 11.1407 25.8244 11.0593L21.7834 10.0815C21.2886 9.91852 20.7114 9.75556 20.2165 9.5926C19.7217 9.42963 19.3094 9.10371 18.8971 8.77778C18.4847 8.45185 18.2373 8.04445 17.9899 7.55556C17.7425 7.06667 17.6601 6.4963 17.6601 5.76296C17.6601 5.35556 17.7425 4.78519 17.9075 4.21482C18.0724 3.64445 18.4023 3.07408 18.8971 2.58519C19.3919 2.0963 19.9692 1.60741 20.7938 1.28148C21.6185 0.955556 22.6081 0.711113 23.9276 0.711113C24.8347 0.711113 25.6594 0.792594 26.4841 1.03704C27.3088 1.28148 27.9685 1.60741 28.6283 2.0963C29.2055 2.58519 29.7003 3.15556 30.1127 3.80741C30.4425 4.54074 30.69 5.27408 30.69 6.25185H28.9581C28.9581 5.6 28.7932 4.94815 28.4633 4.45926C28.2159 3.97037 27.8036 3.56296 27.3912 3.15556C26.9789 2.82963 26.4016 2.58519 25.8244 2.34074C25.2471 2.17778 24.5873 2.0963 24.0101 2.0963C23.4328 2.0963 22.8555 2.17778 22.2782 2.25926C21.701 2.42222 21.2062 2.58519 20.7938 2.82963C20.3815 3.07408 20.0516 3.48148 19.8042 3.88889C19.5568 4.37778 19.3919 4.86667 19.3919 5.6C19.3919 6.00741 19.4743 6.41482 19.6393 6.65926C19.8042 6.98519 19.9691 7.22963 20.2165 7.47408C20.4639 7.71852 20.7938 7.88148 21.1237 7.96297C21.4536 8.12593 21.7834 8.20741 22.1958 8.28889L26.649 9.34815C27.3088 9.51111 27.886 9.75556 28.4633 10C29.0406 10.2444 29.5354 10.5704 29.9477 10.8963C30.3601 11.2222 30.6899 11.7111 30.9373 12.2C31.1848 12.6889 31.2672 13.3407 31.2672 14.0741C31.2672 14.237 31.2672 14.563 31.1848 14.8889C31.1023 15.2148 31.0198 15.5407 30.8549 15.9481C30.69 16.3556 30.4425 16.6815 30.1951 17.0889C29.8653 17.4963 29.4529 17.8222 28.9581 18.1482C28.4633 18.4741 27.8036 18.7185 27.0614 18.8815C26.3192 19.0444 25.412 19.2074 24.3399 19.2074C23.2678 19.2074 22.2782 19.1259 21.3711 18.8815C20.464 18.637 19.6393 18.2296 19.062 17.7407C18.4023 17.2519 17.9075 16.6 17.5776 15.7852C17.2477 14.9704 17.0828 14.0741 17.1652 12.9333H18.8971C18.8971 13.9926 18.9795 14.7259 19.3094 15.3778Z" fill="white"/>
<path d="M36.5452 1.03704L42.5653 16.763L48.8329 1.03704H51.3893V18.963H49.6575V3.48149H49.5751L43.39 18.963H41.7406L35.803 3.48149H35.7205V18.963H33.9887V1.03704H36.5452Z" fill="white"/>
<path d="M71.0167 1.03704V13.9926C71.0167 14.8889 70.9342 15.7037 70.7693 16.3556C70.6043 17.0074 70.2745 17.5778 69.8621 17.9852C69.4498 18.3926 68.8725 18.7185 68.2128 18.963C67.553 19.2074 66.7283 19.2889 65.7387 19.2889C64.6667 19.2889 63.842 19.1259 63.1822 18.8C62.5225 18.4741 62.0277 17.9852 61.6154 17.4148C61.203 16.8444 60.9556 16.1926 60.8731 15.4593C60.7082 14.7259 60.7082 13.9926 60.7082 13.1778H62.44C62.44 13.5852 62.5225 13.9926 62.5225 14.563C62.5225 15.1333 62.6874 15.6222 62.8524 16.1111C63.0173 16.6 63.4296 17.0074 63.842 17.3333C64.3368 17.6593 64.9965 17.8222 65.9037 17.8222C66.5634 17.8222 67.1407 17.7407 67.553 17.5778C67.9654 17.4148 68.3777 17.0889 68.6251 16.763C68.8725 16.437 69.0374 15.8667 69.1199 15.2963C69.2024 14.7259 69.2848 13.9926 69.2848 13.1778V1.03704H71.0167Z" fill="white"/>
<path d="M82.5622 6.17037C83.3044 6.57778 83.9641 7.06667 84.5414 7.63704C85.0362 8.28889 85.4485 8.94074 85.6959 9.83703C85.9433 10.6518 86.1083 11.5481 86.1083 12.4444C86.1083 13.4222 85.9433 14.237 85.6959 15.0519C85.4485 15.8667 85.0362 16.6 84.5414 17.2519C84.0466 17.9037 83.3868 18.3926 82.5622 18.7185C81.82 19.0444 80.9128 19.2889 79.9232 19.2889C78.9336 19.2889 78.0264 19.1259 77.2842 18.7185C76.542 18.3926 75.8823 17.9037 75.305 17.2519C74.8102 16.6 74.3979 15.9481 74.1505 15.0519C73.903 14.237 73.7381 13.3407 73.7381 12.4444C73.7381 11.5481 73.903 10.6518 74.1505 9.83703C74.3979 9.02222 74.8102 8.28889 75.305 7.63704C75.7998 6.98518 76.4596 6.49629 77.2842 6.17037C78.0264 5.76296 78.9336 5.6 79.9232 5.6C80.9128 5.6 81.82 5.84444 82.5622 6.17037ZM77.8615 7.47407C77.2842 7.8 76.7894 8.20741 76.4596 8.69629C76.0472 9.18518 75.7998 9.83704 75.6349 10.4889C75.4699 11.1407 75.305 11.7926 75.305 12.5259C75.305 13.1778 75.3875 13.9111 75.6349 14.563C75.7998 15.2148 76.1297 15.7852 76.4596 16.3556C76.8719 16.8444 77.2842 17.3333 77.8615 17.5778C78.4388 17.9037 79.0985 18.0667 79.8407 18.0667C80.5829 18.0667 81.2427 17.9037 81.82 17.5778C82.3972 17.2518 82.892 16.8444 83.2219 16.3556C83.6342 15.8667 83.8816 15.2148 84.0466 14.563C84.2115 13.9111 84.3764 13.2593 84.3764 12.5259C84.3764 11.8741 84.294 11.1407 84.0466 10.4889C83.8816 9.83704 83.5518 9.26666 83.2219 8.69629C82.8096 8.20741 82.3972 7.8 81.82 7.47407C81.2427 7.14815 80.5829 6.98518 79.8407 6.98518C79.0985 6.98518 78.4388 7.14815 77.8615 7.47407Z" fill="white"/>
<path d="M97.6538 18.963V16.6H97.5713C97.1589 17.4963 96.4992 18.1482 95.757 18.5556C95.0148 18.963 94.0252 19.2074 93.118 19.2074C92.2934 19.2074 91.5511 19.1259 90.9739 18.8815C90.3966 18.637 89.9018 18.3111 89.5719 17.9037C89.242 17.4963 88.9122 17.0074 88.7472 16.3556C88.5823 15.7852 88.4998 15.0519 88.4998 14.3185V6.00741H90.0667V14.4C90.0667 15.5407 90.3966 16.437 90.8914 17.0889C91.3862 17.6593 92.2934 17.9852 93.5304 17.9852C94.1901 17.9852 94.8499 17.8222 95.3447 17.5778C95.8395 17.2519 96.2518 16.9259 96.5817 16.437C96.9115 15.9482 97.1589 15.3778 97.3239 14.8074C97.4888 14.1556 97.5713 13.5037 97.5713 12.8519V6.08889H99.1382V18.963H97.6538Z" fill="white"/>
<path d="M103.591 6.00741V9.02222H103.674C104.086 7.96296 104.746 7.14815 105.571 6.57778C106.395 6.00741 107.467 5.76296 108.622 5.76296V7.31111C107.88 7.31111 107.22 7.39259 106.643 7.63704C106.065 7.88148 105.571 8.20741 105.076 8.61481C104.581 9.02222 104.334 9.51111 104.086 10.0815C103.839 10.6519 103.756 11.3037 103.756 11.9556V18.963H102.189V6.00741H103.591Z" fill="white"/>
<path d="M112.168 6.00741V8.2074H112.251C112.58 7.39259 113.075 6.82222 113.9 6.33333C114.642 5.84444 115.549 5.6 116.456 5.6C117.364 5.6 118.106 5.68148 118.765 5.92592C119.343 6.17037 119.838 6.4963 120.25 6.9037C120.662 7.31111 120.91 7.88148 121.075 8.45185C121.24 9.1037 121.322 9.75555 121.322 10.5704V18.963H119.755V10.8963C119.755 10.3259 119.673 9.83704 119.59 9.34815C119.508 8.85926 119.343 8.45185 119.095 8.12592C118.848 7.8 118.518 7.47407 118.106 7.31111C117.693 7.14815 117.116 6.98518 116.456 6.98518C115.797 6.98518 115.219 7.06667 114.725 7.31111C114.23 7.55555 113.817 7.88148 113.488 8.2074C113.158 8.61481 112.828 9.1037 112.663 9.59259C112.498 10.163 112.333 10.7333 112.333 11.3852V18.963H110.766V6.00741H112.168Z" fill="white"/>
<path d="M124.538 8.04444C124.786 7.47407 125.198 7.06666 125.61 6.65926C126.105 6.33333 126.6 6.08889 127.26 5.84444C127.919 5.68148 128.579 5.6 129.321 5.6C129.899 5.6 130.476 5.68148 131.053 5.76296C131.63 5.84444 132.125 6.08889 132.62 6.41481C133.115 6.74074 133.445 7.14815 133.775 7.71852C134.022 8.28889 134.187 8.94074 134.187 9.83703V16.6815C134.187 17.3333 134.517 17.6593 135.094 17.6593C135.259 17.6593 135.424 17.6593 135.589 17.5778V18.8815C135.424 18.8815 135.259 18.963 135.094 18.963C134.929 18.963 134.764 18.963 134.517 18.963C134.104 18.963 133.775 18.8815 133.527 18.8C133.28 18.7185 133.115 18.5556 132.95 18.3111C132.785 18.0667 132.703 17.9037 132.703 17.5778C132.62 17.3333 132.62 17.0074 132.62 16.6815H132.538C132.29 17.0889 131.96 17.4963 131.63 17.8222C131.301 18.1481 130.971 18.3926 130.641 18.637C130.311 18.8815 129.899 19.0444 129.404 19.1259C128.909 19.2074 128.414 19.2889 127.754 19.2889C127.177 19.2889 126.6 19.2074 126.023 19.0444C125.528 18.8815 125.033 18.637 124.621 18.3926C124.208 18.1481 123.878 17.6593 123.714 17.2519C123.466 16.763 123.384 16.1926 123.384 15.5407C123.384 14.6444 123.549 13.9111 123.961 13.4222C124.373 12.9333 124.868 12.5259 125.61 12.2815C126.27 12.037 127.012 11.7926 127.837 11.7111C128.662 11.6296 129.486 11.4667 130.393 11.3852C130.723 11.3852 131.053 11.3037 131.301 11.2222C131.548 11.1407 131.795 11.0593 131.96 10.9778C132.125 10.8148 132.29 10.6518 132.373 10.4889C132.455 10.2444 132.538 10 132.538 9.67407C132.538 9.1037 132.455 8.69629 132.29 8.37037C132.125 8.04444 131.878 7.71852 131.548 7.55555C131.218 7.39259 130.888 7.22963 130.476 7.14815C130.064 7.06666 129.651 7.06666 129.156 7.06666C128.167 7.06666 127.342 7.31111 126.682 7.8C126.023 8.28889 125.693 9.02222 125.693 10.0815H124.126C124.126 9.18518 124.291 8.53333 124.538 8.04444ZM132.538 11.8741C132.455 12.037 132.208 12.2 131.96 12.2815C131.713 12.363 131.383 12.4444 131.218 12.4444C130.558 12.5259 129.816 12.6889 129.156 12.7704C128.414 12.8518 127.754 13.0148 127.177 13.1778C126.6 13.3407 126.105 13.5852 125.693 13.9926C125.28 14.3185 125.116 14.8074 125.116 15.4593C125.116 15.8667 125.198 16.1926 125.363 16.5185C125.528 16.8444 125.775 17.0889 126.023 17.3333C126.27 17.5778 126.6 17.7407 126.93 17.8222C127.26 17.9037 127.672 17.9852 128.002 17.9852C128.579 17.9852 129.156 17.9037 129.734 17.7407C130.311 17.5778 130.806 17.2518 131.218 16.9259C131.63 16.6 131.96 16.1111 132.208 15.6222C132.455 15.1333 132.538 14.563 132.538 13.9111V11.8741Z" fill="white"/>
<path d="M139.053 1.03704V18.963H137.403V1.03704H139.053Z" fill="white"/>
<path d="M149.608 8.53333C149.443 8.20741 149.196 7.88148 148.866 7.63704C148.536 7.39259 148.206 7.22963 147.794 7.14815C147.382 7.06666 146.969 6.98518 146.475 6.98518C146.145 6.98518 145.732 6.98518 145.403 7.06666C145.073 7.14815 144.743 7.22963 144.413 7.47407C144.083 7.63704 143.836 7.88148 143.671 8.12592C143.506 8.37037 143.423 8.77778 143.423 9.18518C143.423 9.51111 143.506 9.83704 143.671 10.0815C143.836 10.3259 144.083 10.4889 144.33 10.7333C144.578 10.8963 144.908 11.0593 145.238 11.1407C145.568 11.2222 145.815 11.3037 146.145 11.3852L148.289 11.8741C148.784 11.9556 149.196 12.037 149.608 12.2C150.021 12.363 150.433 12.6074 150.763 12.8519C151.093 13.0963 151.423 13.5037 151.588 13.9111C151.835 14.3185 151.918 14.8074 151.918 15.3778C151.918 16.1111 151.753 16.6815 151.423 17.1704C151.093 17.6593 150.681 18.0667 150.186 18.3926C149.691 18.7185 149.114 18.963 148.536 19.0444C147.877 19.2074 147.299 19.2074 146.722 19.2074C145.155 19.2074 143.918 18.8815 143.011 18.1481C142.021 17.4148 141.527 16.2741 141.362 14.7259H142.929C143.011 15.7852 143.423 16.6 144.083 17.1704C144.825 17.7407 145.732 17.9852 146.722 17.9852C147.134 17.9852 147.547 17.9037 147.959 17.8222C148.371 17.7407 148.784 17.5778 149.114 17.4148C149.443 17.2519 149.773 16.9259 150.021 16.6815C150.268 16.3556 150.351 16.0296 150.351 15.5407C150.351 15.1333 150.268 14.8074 150.103 14.563C149.938 14.3185 149.691 14.0741 149.443 13.9111C149.196 13.7481 148.866 13.5852 148.536 13.5037C148.206 13.4222 147.877 13.2593 147.464 13.1778L145.403 12.6889C144.908 12.5259 144.413 12.363 143.918 12.2C143.506 12.037 143.093 11.7926 142.764 11.5481C142.434 11.3037 142.186 10.9778 142.021 10.5704C141.856 10.163 141.774 9.75555 141.774 9.18518C141.774 8.53333 141.939 7.96296 142.186 7.47407C142.516 6.98518 142.846 6.65926 143.341 6.33333C143.836 6.08889 144.33 5.84444 144.908 5.68148C145.485 5.51852 146.062 5.51852 146.64 5.51852C147.299 5.51852 147.877 5.6 148.454 5.76296C149.031 5.92592 149.526 6.17037 149.938 6.57778C150.351 6.9037 150.68 7.39259 150.928 7.88148C151.175 8.37037 151.34 9.02222 151.34 9.67407H149.773C149.938 9.34815 149.856 8.85926 149.608 8.53333Z" fill="white"/>
</svg>
